<?xml version="1.0" encoding="utf-8"?>
<!-- Generator: Adobe Illustrator 26.0.2, SVG Export Plug-In . SVG Version: 6.00 Build 0)  -->
<svg version="1.1" id="Шар_1" xmlns="http://www.w3.org/2000/svg" xmlns:xlink="http://www.w3.org/1999/xlink" x="0px" y="0px"
	 viewBox="0 0 92 92" style="enable-background:new 0 0 92 92;" xml:space="preserve">
<style type="text/css">
	.st0{fill:#90BFD7;}
</style>
<g>
	<g transform="scale(5.12,5.12)">
		<path class="st0" d="M9,0c5,0,9,4,9,9s-4,9-9,9s-9-4-9-9S4,0,9,0z M12.1,12.6c0.2-0.5,0.9-5.6,1-6.6c0-0.3-0.1-0.5-0.3-0.6
			c-0.2-0.1-0.6-0.1-0.9,0.1c-0.5,0.2-7.3,3.1-7.7,3.2C3.8,9,3.5,9.2,3.5,9.4c0,0.2,0.1,0.3,0.4,0.4c0.3,0.1,1.1,0.3,1.5,0.5
			c0.4,0.1,0.9,0,1.2-0.2c0.3-0.2,3.6-2.4,3.9-2.6c0.2-0.2,0.4,0.1,0.2,0.3c-0.2,0.2-2.5,2.4-2.8,2.7c-0.4,0.4-0.1,0.8,0.1,0.9
			c0.3,0.2,2.3,1.5,2.6,1.8s0.6,0.3,0.9,0.3S11.9,13.1,12.1,12.6z"/>
	</g>
</g>
</svg>
