<?xml version="1.0" encoding="utf-8"?>
<!-- Generator: Adobe Illustrator 26.0.2, SVG Export Plug-In . SVG Version: 6.00 Build 0)  -->
<svg version="1.1" id="Шар_1" xmlns="http://www.w3.org/2000/svg" xmlns:xlink="http://www.w3.org/1999/xlink" x="0px" y="0px"
	 viewBox="0 0 87 78.1" style="enable-background:new 0 0 87 78.1;" xml:space="preserve">
<style type="text/css">
	.st0{fill:none;stroke:#90BFD7;stroke-width:6;}
</style>
<path class="st0" d="M83.6,28.9c-2.3,12.7-11,21.5-18.9,29.1C59.9,62.6,53,68.7,43.5,74.6C34.1,68.7,27.1,62.6,22.4,58
	C14.5,50.4,5.8,41.7,3.5,28.9c-0.9-4.7-0.4-7.7,0-9.4c1.7-7,7.3-12.7,13.6-15.1c8.7-3.4,19.3-0.6,26.4,7.1C50.6,3.8,61.2,1,69.9,4.4
	c6.3,2.4,11.9,8.1,13.6,15.1C84,21.3,84.4,24.2,83.6,28.9z"/>
</svg>
