<?xml version="1.0" encoding="utf-8"?>
<!-- Generator: Adobe Illustrator 26.0.2, SVG Export Plug-In . SVG Version: 6.00 Build 0)  -->
<svg version="1.1" id="Шар_1" xmlns="http://www.w3.org/2000/svg" xmlns:xlink="http://www.w3.org/1999/xlink" x="0px" y="0px"
	 viewBox="0 0 1313.3 391.9" style="enable-background:new 0 0 1313.3 391.9;" xml:space="preserve">
<style type="text/css">
	.st0{fill:#E5E5E5;}
	.st1{fill:none;stroke:#D8D871;stroke-width:16;stroke-linecap:round;stroke-linejoin:round;stroke-miterlimit:10;}
	.st2{fill:none;stroke:#90BFD7;stroke-width:16;stroke-linecap:round;stroke-linejoin:round;stroke-miterlimit:10;}
	.st3{fill:none;stroke:#AEA9A6;stroke-width:7;stroke-linecap:round;stroke-linejoin:round;stroke-miterlimit:10;}
	.st4{opacity:0.52;fill:#969696;}
	.st5{fill:none;stroke:#90BFD7;stroke-width:33;stroke-linecap:round;stroke-linejoin:round;stroke-miterlimit:10;}
	.st6{fill:none;stroke:#D8D871;stroke-width:33;stroke-linecap:round;stroke-linejoin:round;stroke-miterlimit:10;}
	.st7{fill:none;stroke:#D8D871;stroke-width:13;stroke-linecap:round;stroke-linejoin:round;stroke-miterlimit:10;}
</style>
<path class="st0" d="M240.1,391.9c0,0,71.9-38.1,159.8-112.2C554.4,120.7,453.2,0,365.3,0S240.1,43.9,240.1,43.9S202.8,0,114.8,0
	S-74.4,120.7,80.2,279.8C168.1,353.8,240.1,391.9,240.1,391.9z"/>
<g>
	<path class="st1" d="M112.9,68.3c0,0-3.2,93.2-56.9,160.2"/>
	<line class="st1" x1="52.3" y1="109.9" x2="203" y2="109.9"/>
	<path class="st1" d="M93.7,233.3c17.2-9.6,40.9-25.8,62-51.8c9.3-11.5,16.4-22.7,21.7-32.8H98.1c5.2,12.3,15.2,31.5,34,50.2
		c22,21.9,45.6,32.4,59.1,37.3"/>
</g>
<g>
	<path class="st2" d="M282.6,91.7c0,0,16.5,2.9,19.9,17"/>
	<polyline class="st2" points="372.5,68.3 372.5,86.5 372.5,116.4 	"/>
	<polyline class="st2" points="404.2,84.5 380.2,84.5 340.9,84.5 	"/>
	<polyline class="st2" points="424.9,118.3 385.1,118.3 320.2,118.3 	"/>
	<polyline class="st2" points="422.3,144.3 384.5,144.3 322.8,144.3 	"/>
	<polyline class="st2" points="422.3,201.5 384.5,201.5 322.8,201.5 	"/>
	<polyline class="st2" points="417.1,172.9 383.3,172.9 328,172.9 	"/>
	<line class="st2" x1="372.5" y1="145" x2="372.5" y2="219.9"/>
	<line class="st2" x1="342.1" y1="120.3" x2="359.8" y2="144.3"/>
	<line class="st2" x1="401.6" y1="120.3" x2="386.1" y2="143.7"/>
	<polyline class="st2" points="276.2,147.6 300.9,147.6 300.9,215.6 278.8,235.9 	"/>
	<path class="st2" d="M299.2,217.1c0,0,6.6,20.6,27.6,21.7c21,1.1,95.5,0,95.5,0"/>
</g>
<path class="st3" d="M226.1,236.1c11.9,7.4,13.4,9.9,13.4,9.9"/>
<path class="st3" d="M252.9,236.1c-2.7,1.7-4.9,3.1-6.6,4.3c-5.9,4.1-6.8,5.6-6.8,5.6"/>
<path class="st4" d="M198.9,187.3c-20.4-47.9-58.5-75.7-94.7-70.1C80,120.9,63.4,138.4,56,147.5c4.8,27.3,15.8,41.5,21.4,47.5
	C104.8,224.6,154.7,223.2,198.9,187.3z"/>
<path class="st4" d="M279.5,187.3c20.4-47.9,58.5-75.7,94.7-70.1c24.2,3.7,40.8,21.2,48.2,30.3c-4.8,27.3-15.8,41.5-21.4,47.5
	C373.6,224.6,323.7,223.2,279.5,187.3z"/>
<path class="st3" d="M239.5,245.6c-1.1,17.4-7.3,29.1-14.4,29.7c-1.4,0.1-5.3,0-10.7-5.9"/>
<line class="st5" x1="577.1" y1="338.6" x2="577.1" y2="53.9"/>
<line class="st5" x1="519" y1="53.9" x2="635.1" y2="53.9"/>
<path class="st5" d="M728.8,54c32.7,1.7,55.2,73.4,57,132.7c2.1,69.5-23.5,150.1-57,151.6c-34.1,1.6-62.7-79.4-60.5-151.6
	C670.1,124.3,695.4,52.3,728.8,54z"/>
<path class="st5" d="M1042.1,53.3c19.4,0.7,32.8,30.2,33.8,54.7c1.2,28.7-14,61.8-33.8,62.5c-20.3,0.7-37.2-32.7-35.9-62.5
	C1007.3,82.3,1022.3,52.6,1042.1,53.3z"/>
<path class="st5" d="M1152.8,56.2c16.4,6,32.5,25.5,33.8,52.3c1.5,29.6-15.9,53.1-33.8,59.8c-10.1,3.8-19.1,1.8-24.3,0
	c0-37.4,0-74.7,0-112.1C1133.4,54.5,1142.5,52.4,1152.8,56.2z"/>
<path class="st5" d="M837.5,338.3c0-94.9-0.1-189.8-0.1-284.8c18.9,47.5,37.7,95.1,56.6,142.6c19.8-47.6,39.6-95.2,59.4-142.8
	c0,94.9,0,189.8,0,284.8"/>
<polyline class="st6" points="1006.6,338.3 1017.4,300.9 1039.9,222.4 1063.6,299.1 1075.8,338.3 "/>
<line class="st7" x1="1018.1" y1="306" x2="1063.6" y2="306.7"/>
<path class="st6" d="M1186.9,320.3c-2.8,3.8-15,19.9-29.5,17.2c-19.7-3.6-28.9-39.2-28.6-62.4c0.1-6.4,0.2-24.2,10.5-38.2
	c2.4-3.3,11-15,24.4-14.5c13.6,0.4,22,13,23.3,15.1"/>
<line class="st5" x1="1238.7" y1="52.9" x2="1238.7" y2="338.5"/>
<line class="st5" x1="1296.5" y1="224.8" x2="1296.5" y2="338.5"/>
<line class="st5" x1="1296.2" y1="52.9" x2="1296.8" y2="169.9"/>
<line class="st5" x1="1239.7" y1="222.2" x2="1296.7" y2="222.6"/>
<path class="st3" d="M239.5,245.6c1.1,17.4,7.3,29.1,14.6,29.7c1.5,0.1,5.3,0,10.8-5.9"/>
</svg>
